<svg xmlns="http://www.w3.org/2000/svg" width="28.896" height="28.896" viewBox="0 0 28.896 28.896">
    <defs>
        <style>
            .cls-1{fill:#7c7d80}
        </style>
    </defs>
    <path id="Facebook__x28_alt_x29_" d="M28.9 4.816A4.991 4.991 0 0 0 24.08 0H4.816A4.991 4.991 0 0 0 0 4.816V24.08a4.992 4.992 0 0 0 4.816 4.82h9.632V17.98h-3.532v-4.816h3.532v-1.876c0-3.236 2.43-6.15 5.418-6.15h3.893v4.815h-3.893c-.426 0-.923.517-.923 1.292v1.919h4.816v4.816h-4.816V28.9h5.137a4.991 4.991 0 0 0 4.82-4.82z" class="cls-1"/>
</svg>
