<svg xmlns="http://www.w3.org/2000/svg" width="28.368" height="28.368" viewBox="0 0 28.368 28.368">
    <defs>
        <style>
            .cls-1{fill:#7c7d80}.cls-2{fill:#898469}
        </style>
    </defs>
    <g id="Instagram" transform="translate(-115 -2371.886)">
        <path id="Path_2909" d="M20.539 0H7.828A7.837 7.837 0 0 0 0 7.829V20.54a7.837 7.837 0 0 0 7.828 7.829h12.711a7.838 7.838 0 0 0 7.829-7.829V7.829A7.837 7.837 0 0 0 20.539 0zm5.312 20.54a5.318 5.318 0 0 1-5.312 5.312H7.828a5.317 5.317 0 0 1-5.311-5.312V7.829a5.318 5.318 0 0 1 5.311-5.312h12.711a5.318 5.318 0 0 1 5.312 5.312V20.54z" class="cls-1" data-name="Path 2909" transform="translate(115 2371.886)"/>
        <path id="Path_2910" d="M48.278 40.97a7.31 7.31 0 1 0 7.31 7.31 7.318 7.318 0 0 0-7.31-7.31zm0 12.1a4.793 4.793 0 1 1 4.793-4.792 4.8 4.8 0 0 1-4.793 4.794z" class="cls-1" data-name="Path 2910" transform="translate(80.906 2337.791)"/>
        <path id="Path_2911" d="M120.767 28.251a1.845 1.845 0 1 0 1.305.54 1.853 1.853 0 0 0-1.305-.54z" class="cls-2" data-name="Path 2911" transform="translate(16.034 2348.375)"/>
    </g>
</svg>
