<svg xmlns="http://www.w3.org/2000/svg" width="104" height="104" viewBox="0 0 104 104">
  <g id="Group_2606" data-name="Group 2606" transform="translate(-1173 -2762)">
    <g id="phone">
      <g id="Ellipse_509" data-name="Ellipse 509" transform="translate(1173 2762)" fill="none" stroke="#a9a281" stroke-width="1.7">
        <circle cx="52" cy="52" r="52" stroke="none"/>
        <circle cx="52" cy="52" r="51.15" fill="none"/>
      </g>
      <g id="phone-call" transform="translate(1199.768 2788.768)">
        <path id="Path_3773" data-name="Path 3773" d="M40.342,50.195a21.558,21.558,0,0,1-7.385-1.57c-6.081-2.293-12.7-6.824-18.63-12.757S3.861,23.315,1.567,17.234C-.518,11.7-.523,7.167,1.555,5.09c.3-.3.6-.62.917-.951C4.368,2.146,6.51-.1,9.35,0c1.957.081,3.853,1.3,5.794,3.713,5.737,7.135,3.15,9.677.157,12.625l-.528.523c-.49.49-1.415,2.757,7.192,11.364a47.725,47.725,0,0,0,7.12,6.11c1.205.783,3.361,1.969,4.246,1.084l.532-.537c2.944-2.987,5.487-5.565,12.617.167,2.416,1.942,3.63,3.836,3.711,5.8.116,2.838-2.144,4.986-4.14,6.88-.329.314-.65.618-.949.915A6.576,6.576,0,0,1,40.342,50.195ZM9.147,1.688C7.13,1.688,5.308,3.606,3.7,5.3c-.324.341-.638.672-.947.981-1.548,1.546-1.391,5.61.4,10.356C5.359,22.5,9.753,28.907,15.522,34.676s12.169,10.16,18.033,12.37c4.746,1.793,8.809,1.945,10.354.4.309-.309.64-.623.981-.945,1.734-1.648,3.7-3.515,3.615-5.587-.059-1.423-1.1-2.955-3.081-4.55-5.941-4.778-7.6-3.091-10.358-.3l-.54.545c-1.317,1.319-3.456,1.026-6.36-.861a49.3,49.3,0,0,1-7.393-6.333c-7.143-7.141-9.427-11.512-7.192-13.753l.539-.532c2.8-2.755,4.491-4.418-.289-10.363-1.6-1.984-3.128-3.02-4.552-3.081C9.235,1.688,9.191,1.688,9.147,1.688Z" transform="translate(0 0)" fill="#a9a281"/>
      </g>
    </g>
  </g>
</svg>
