<svg xmlns="http://www.w3.org/2000/svg" width="104" height="104" viewBox="0 0 104 104">
  <g id="Group_2605" data-name="Group 2605" transform="translate(-445 -2762)">
    <g id="location">
      <g id="Ellipse_508" data-name="Ellipse 508" transform="translate(445 2762)" fill="none" stroke="#a9a281" stroke-width="1.7">
        <circle cx="52" cy="52" r="52" stroke="none"/>
        <circle cx="52" cy="52" r="51.15" fill="none"/>
      </g>
      <g id="placeholder" transform="translate(469.798 2787)">
        <path id="Path_3771" data-name="Path 3771" d="M27.557,12a7,7,0,1,0,7,7A7.009,7.009,0,0,0,27.557,12Zm0,12a5,5,0,1,1,5-5A5.006,5.006,0,0,1,27.557,24Z" fill="#a9a281"/>
        <path id="Path_3772" data-name="Path 3772" d="M40.94,5.617a19.176,19.176,0,0,0-27.12,0c-6.7,6.7-7.536,19.312-1.8,26.952L27.38,54.757,42.721,32.6C48.476,24.929,47.643,12.319,40.94,5.617ZM41.1,31.431,27.38,51.243,13.639,31.4c-5.2-6.932-4.454-18.32,1.6-24.369a17.176,17.176,0,0,1,24.291,0C45.576,13.08,46.321,24.468,41.1,31.431Z" fill="#a9a281"/>
      </g>
    </g>
  </g>
</svg>
