<?xml version="1.0" encoding="utf-8"?>
<!-- Generator: Adobe Illustrator 23.0.3, SVG Export Plug-In . SVG Version: 6.00 Build 0)  -->
<svg version="1.1" id="Layer_1" xmlns="http://www.w3.org/2000/svg" xmlns:xlink="http://www.w3.org/1999/xlink" x="0px" y="0px"
	 viewBox="0 0 314 138.5" style="enable-background:new 0 0 314 138.5;" xml:space="preserve">
<style type="text/css">
	.st0{fill:#EFECE2;}
	.st1{enable-background:new    ;}
	.st2{fill-rule:evenodd;clip-rule:evenodd;fill:#EFECE2;}
</style>
<g>
	<rect id="Rectangle_1_1_" x="8.5" y="104.1" class="st0" width="296.9" height="2.9"/>
	<g class="st1">
		<path class="st0" d="M13.9,122.7h5.2v0.4h-0.3c-0.6,0-0.9,0-1.1,0.1c-0.2,0.1-0.3,0.3-0.3,0.5s-0.1,0.8-0.1,1.8v7.4
			c0,1,0,1.7-0.1,2.2c-0.1,0.5-0.3,1-0.6,1.5c-0.3,0.5-0.8,0.8-1.4,1.1c-0.6,0.3-1.2,0.4-2,0.4c-0.9,0-1.5-0.2-2-0.5
			s-0.7-0.7-0.7-1.1c0-0.3,0.1-0.5,0.2-0.7c0.2-0.2,0.4-0.3,0.6-0.3c0.2,0,0.4,0.1,0.6,0.2c0.2,0.2,0.2,0.4,0.2,0.6
			c0,0.1,0,0.3-0.1,0.4c-0.1,0.1-0.1,0.2-0.1,0.3c0,0.2,0.1,0.3,0.3,0.4s0.5,0.1,0.8,0.1c0.6,0,1.2-0.2,1.6-0.6s0.7-0.9,0.8-1.4
			s0.1-1.4,0.1-2.7v-7.4c0-0.9,0-1.5-0.1-1.7c-0.1-0.3-0.2-0.4-0.3-0.5c-0.2-0.1-0.5-0.1-1.1-0.1h-0.3V122.7z"/>
		<path class="st0" d="M31.5,129.8h-4.3l-0.3,0.7c-0.4,1-0.6,1.7-0.6,2c0,0.3,0.1,0.6,0.3,0.8c0.2,0.2,0.5,0.3,0.9,0.3v0.4h-3.3
			v-0.4c0.5-0.1,0.9-0.3,1.1-0.5c0.2-0.3,0.5-0.9,0.9-1.7c0-0.1,0.2-0.4,0.4-1l3.3-7.8h0.3l3.8,8.9l0.5,1.2c0.1,0.3,0.3,0.5,0.5,0.6
			c0.2,0.2,0.5,0.2,0.9,0.3v0.4h-4.4v-0.4c0.5,0,0.9,0,1.1-0.1c0.2-0.1,0.3-0.2,0.3-0.5c0-0.1-0.1-0.5-0.4-1.1L31.5,129.8z
			 M31.3,129.4l-2-4.8l-2,4.8H31.3z"/>
		<path class="st0" d="M53.4,134h-3c-0.5-0.4-1.4-1.4-2.5-3c-0.4-0.5-0.7-1-1.1-1.5s-0.6-0.8-0.8-0.9c-0.1-0.1-0.4-0.2-0.7-0.2h-0.4
			v2.5c0,0.9,0,1.5,0.1,1.7c0,0.3,0.2,0.5,0.3,0.6c0.2,0.1,0.5,0.2,1,0.2h0.5v0.4h-5.4v-0.4h0.4c0.5,0,0.8-0.1,1-0.2
			c0.2-0.1,0.3-0.3,0.4-0.6c0-0.3,0.1-0.9,0.1-1.8v-5.5c0-0.9,0-1.5-0.1-1.7c0-0.3-0.2-0.4-0.3-0.5s-0.5-0.1-1.1-0.1h-0.2v-0.4
			l1.6-0.1c1.1,0,1.9-0.1,2.6-0.1c1.1,0,1.9,0.1,2.6,0.3c0.7,0.2,1.2,0.5,1.6,1c0.4,0.5,0.6,1,0.6,1.6c0,0.7-0.3,1.4-0.8,1.9
			c-0.5,0.5-1.3,0.8-2.4,1c0.5,0.2,1.2,1,2.3,2.5c0.9,1.1,1.5,1.9,2,2.2c0.5,0.4,1.1,0.5,1.7,0.6V134z M44.9,128.2
			c0.4,0,0.8,0,1.3,0c0.4,0,0.8-0.1,1.2-0.2s0.6-0.2,0.8-0.4c0.2-0.2,0.4-0.4,0.5-0.8c0.1-0.3,0.2-0.7,0.2-1.1
			c0-0.8-0.2-1.4-0.6-1.9S47,123,45.6,123c-0.2,0-0.4,0-0.7,0V128.2z"/>
		<path class="st0" d="M59.3,122.8l1.9-0.1c1.5-0.1,2.6-0.1,3.1-0.1c1.7,0,3,0.3,3.9,0.8s1.6,1.2,2.1,2.1c0.5,0.9,0.7,1.9,0.7,3
			c0,0.8-0.1,1.6-0.4,2.3c-0.2,0.7-0.6,1.2-1,1.7s-0.9,0.8-1.5,1c-0.6,0.2-1.1,0.4-1.6,0.4c-0.5,0.1-1.2,0.1-2.2,0.1h-5v-0.4h0.5
			c0.5,0,0.8-0.1,1-0.2s0.3-0.3,0.4-0.6c0.1-0.3,0.1-0.9,0.1-1.8v-5.4c0-0.9,0-1.5-0.1-1.7s-0.2-0.4-0.3-0.5s-0.5-0.1-1.1-0.1h-0.3
			V122.8z M62.8,123v7.5c0,1.1,0,1.8,0.1,2.2c0,0.3,0.2,0.5,0.4,0.7c0.2,0.1,0.6,0.2,1.3,0.2c1,0,1.8-0.1,2.4-0.4s1.2-0.8,1.6-1.6
			c0.4-0.8,0.6-1.8,0.6-3c0-1-0.1-1.8-0.4-2.5c-0.2-0.7-0.6-1.4-1.1-1.8c-0.5-0.5-1-0.8-1.5-1c-0.6-0.2-1.3-0.3-2.2-0.3
			C63.6,123,63.2,123,62.8,123z"/>
		<path class="st0" d="M77.7,123.1v-0.4h5.1v0.4h-0.2c-0.6,0-0.9,0-1.1,0.1c-0.2,0.1-0.3,0.3-0.3,0.5c-0.1,0.2-0.1,0.8-0.1,1.8v5.5
			c0,0.9,0,1.5,0.1,1.7c0,0.3,0.2,0.5,0.3,0.6s0.5,0.2,1,0.2h0.3v0.4h-5.1v-0.4H78c0.5,0,0.8-0.1,1-0.2s0.3-0.3,0.4-0.6
			c0-0.3,0.1-0.9,0.1-1.8v-5.5c0-0.9,0-1.5-0.1-1.7c0-0.3-0.2-0.4-0.3-0.5s-0.5-0.1-1.1-0.1H77.7z M79.5,121.7h-0.3l1.2-1.9
			c0.3-0.4,0.5-0.7,0.6-0.8s0.3-0.2,0.5-0.2c0.2,0,0.3,0,0.4,0.1c0.1,0.1,0.1,0.2,0.1,0.3c0,0.1-0.1,0.3-0.2,0.4
			c-0.1,0.1-0.5,0.5-1.1,1L79.5,121.7z"/>
		<path class="st0" d="M99.2,134.2l-8-10.6v7.8c0,0.6,0,1.1,0.1,1.3c0.1,0.2,0.2,0.4,0.5,0.6c0.3,0.2,0.7,0.3,1.3,0.3v0.4H89v-0.4
			c0.5,0,0.9-0.1,1.2-0.3c0.3-0.2,0.4-0.3,0.5-0.5c0.1-0.2,0.1-0.6,0.1-1.3v-6c0-0.9,0-1.4-0.1-1.7c-0.1-0.3-0.2-0.5-0.4-0.6
			c-0.2-0.1-0.6-0.1-1.2-0.1v-0.4h3.3l6.7,8.8v-6.7c0-0.5-0.1-0.8-0.2-1s-0.3-0.4-0.6-0.5c-0.3-0.1-0.7-0.2-1.1-0.2v-0.4h4.1v0.4
			c-0.5,0-0.9,0.1-1.1,0.3c-0.3,0.1-0.4,0.3-0.5,0.5c-0.1,0.2-0.1,0.5-0.1,1v9.3H99.2z"/>
		<path class="st0" d="M120.5,128.7v2.4c0,0.9,0,1.5,0.1,1.7c0,0.3,0.2,0.5,0.3,0.6c0.2,0.1,0.5,0.2,1,0.2h0.4v0.4h-5.2v-0.4h0.3
			c0.5,0,0.8-0.1,1-0.2s0.3-0.3,0.4-0.6c0-0.3,0.1-0.9,0.1-1.8v-5.5c0-0.9,0-1.5-0.1-1.7c0-0.3-0.2-0.4-0.3-0.5s-0.5-0.1-1.1-0.1
			h-0.2v-0.4l1.4,0c1.1,0,2-0.1,2.6-0.1c1.2,0,2.1,0.1,2.7,0.3s1.1,0.5,1.5,1s0.6,1.1,0.6,1.8c0,0.6-0.1,1.2-0.4,1.6
			c-0.3,0.5-0.7,0.8-1.2,1.1s-1.4,0.4-2.7,0.4H120.5z M120.5,128.3h0.8c0.6,0,1.2-0.1,1.6-0.2s0.7-0.4,1-0.8s0.4-0.9,0.4-1.5
			c0-0.9-0.2-1.6-0.7-2c-0.5-0.4-1.2-0.7-2.2-0.7c-0.4,0-0.7,0-0.9,0V128.3z"/>
		<path class="st0" d="M137.4,129.8h-4.3l-0.3,0.7c-0.4,1-0.6,1.7-0.6,2c0,0.3,0.1,0.6,0.3,0.8c0.2,0.2,0.5,0.3,0.9,0.3v0.4H130
			v-0.4c0.5-0.1,0.9-0.3,1.1-0.5c0.2-0.3,0.5-0.9,0.9-1.7c0-0.1,0.2-0.4,0.4-1l3.3-7.8h0.3l3.8,8.9l0.5,1.2c0.1,0.3,0.3,0.5,0.5,0.6
			s0.5,0.2,0.9,0.3v0.4h-4.4v-0.4c0.5,0,0.9,0,1.1-0.1c0.2-0.1,0.3-0.2,0.3-0.5c0-0.1-0.1-0.5-0.4-1.1L137.4,129.8z M137.2,129.4
			l-2-4.8l-2,4.8H137.2z"/>
		<path class="st0" d="M159.3,134h-3c-0.5-0.4-1.4-1.4-2.5-3c-0.4-0.5-0.7-1-1.1-1.5s-0.6-0.8-0.8-0.9c-0.1-0.1-0.4-0.2-0.7-0.2
			h-0.4v2.5c0,0.9,0,1.5,0.1,1.7c0,0.3,0.2,0.5,0.3,0.6s0.5,0.2,1,0.2h0.5v0.4h-5.4v-0.4h0.4c0.5,0,0.8-0.1,1-0.2s0.3-0.3,0.4-0.6
			c0-0.3,0.1-0.9,0.1-1.8v-5.5c0-0.9,0-1.5-0.1-1.7c-0.1-0.3-0.2-0.4-0.3-0.5c-0.2-0.1-0.5-0.1-1.1-0.1h-0.2v-0.4l1.6-0.1
			c1.1,0,1.9-0.1,2.6-0.1c1.1,0,1.9,0.1,2.6,0.3c0.7,0.2,1.2,0.5,1.6,1c0.4,0.5,0.6,1,0.6,1.6c0,0.7-0.3,1.4-0.8,1.9
			c-0.5,0.5-1.3,0.8-2.4,1c0.5,0.2,1.2,1,2.3,2.5c0.9,1.1,1.5,1.9,2,2.2c0.5,0.4,1.1,0.5,1.7,0.6V134z M150.8,128.2
			c0.4,0,0.8,0,1.3,0c0.4,0,0.8-0.1,1.2-0.2s0.6-0.2,0.8-0.4c0.2-0.2,0.4-0.4,0.5-0.8c0.1-0.3,0.2-0.7,0.2-1.1
			c0-0.8-0.2-1.4-0.6-1.9s-1.3-0.7-2.6-0.7c-0.2,0-0.4,0-0.7,0V128.2z"/>
		<path class="st0" d="M172.2,129.8h-4.3l-0.3,0.7c-0.4,1-0.6,1.7-0.6,2c0,0.3,0.1,0.6,0.3,0.8c0.2,0.2,0.5,0.3,0.9,0.3v0.4h-3.3
			v-0.4c0.5-0.1,0.9-0.3,1.1-0.5c0.2-0.3,0.5-0.9,0.9-1.7c0-0.1,0.2-0.4,0.4-1l3.3-7.8h0.3l3.8,8.9l0.5,1.2c0.1,0.3,0.3,0.5,0.5,0.6
			s0.5,0.2,0.9,0.3v0.4H172v-0.4c0.5,0,0.9,0,1.1-0.1c0.2-0.1,0.3-0.2,0.3-0.5c0-0.1-0.1-0.5-0.4-1.1L172.2,129.8z M172,129.4
			l-2-4.8l-2,4.8H172z"/>
		<path class="st0" d="M201.2,130.5h0.4l-0.2,3.5H192v-0.4h0.2c0.6,0,0.9-0.1,1.1-0.2c0.2-0.2,0.3-0.3,0.3-0.6
			c0-0.2,0.1-0.8,0.1-1.8v-5.5c0-0.9,0-1.4-0.1-1.7s-0.2-0.5-0.3-0.6c-0.2-0.1-0.5-0.2-1.1-0.2v-0.4h8l0.3,2.8h-0.4
			c-0.2-0.8-0.4-1.3-0.7-1.7c-0.3-0.3-0.6-0.5-0.9-0.6s-0.9-0.1-1.7-0.1h-1.6v4.7h1.2c0.5,0,0.9,0,1.1-0.1s0.4-0.2,0.4-0.4
			c0.1-0.2,0.1-0.6,0.1-1.1h0.4v3.9h-0.4c0-0.6-0.1-1-0.2-1.3s-0.3-0.4-0.5-0.4s-0.5-0.1-1-0.1h-1.2v2.7c0,1.3,0.1,2.1,0.3,2.4
			c0.2,0.2,0.6,0.4,1.4,0.4h0.8c0.6,0,1.1-0.1,1.5-0.2c0.4-0.2,0.7-0.5,1.1-0.9C200.7,131.9,201,131.3,201.2,130.5z"/>
		<path class="st0" d="M214.2,134.2h-0.5l-3.9-8.9c-0.1-0.2-0.2-0.4-0.3-0.8c-0.2-0.5-0.4-0.9-0.7-1.1c-0.2-0.2-0.6-0.3-1.2-0.3
			v-0.4h4.8v0.4c-0.6,0-1,0-1.2,0.1c-0.2,0.1-0.3,0.3-0.3,0.5c0,0.2,0.1,0.5,0.4,1.1l3.2,7.5l2.6-6.2c0.4-1,0.7-1.7,0.7-2
			c0-0.6-0.5-1-1.4-1v-0.4h3.4v0.4c-0.3,0-0.7,0.1-0.9,0.4c-0.3,0.2-0.5,0.6-0.7,1l-0.8,1.8L214.2,134.2z"/>
		<path class="st0" d="M235.1,130.5h0.4l-0.2,3.5h-9.3v-0.4h0.2c0.6,0,0.9-0.1,1.1-0.2c0.2-0.2,0.3-0.3,0.3-0.6
			c0-0.2,0.1-0.8,0.1-1.8v-5.5c0-0.9,0-1.4-0.1-1.7s-0.2-0.5-0.3-0.6c-0.2-0.1-0.5-0.2-1.1-0.2v-0.4h8l0.3,2.8h-0.4
			c-0.2-0.8-0.4-1.3-0.7-1.7c-0.3-0.3-0.6-0.5-0.9-0.6s-0.9-0.1-1.7-0.1h-1.6v4.7h1.2c0.5,0,0.9,0,1.1-0.1s0.4-0.2,0.4-0.4
			c0.1-0.2,0.1-0.6,0.1-1.1h0.4v3.9h-0.4c0-0.6-0.1-1-0.2-1.3s-0.3-0.4-0.5-0.4s-0.5-0.1-1-0.1h-1.2v2.7c0,1.3,0.1,2.1,0.3,2.4
			c0.2,0.2,0.6,0.4,1.4,0.4h0.8c0.6,0,1.1-0.1,1.5-0.2c0.4-0.2,0.7-0.5,1.1-0.9C234.6,131.9,234.9,131.3,235.1,130.5z"/>
		<path class="st0" d="M251.9,134.2l-8-10.6v7.8c0,0.6,0,1.1,0.1,1.3c0.1,0.2,0.2,0.4,0.5,0.6c0.3,0.2,0.7,0.3,1.3,0.3v0.4h-4.2
			v-0.4c0.5,0,0.9-0.1,1.2-0.3c0.3-0.2,0.4-0.3,0.5-0.5c0.1-0.2,0.1-0.6,0.1-1.3v-6c0-0.9,0-1.4-0.1-1.7c-0.1-0.3-0.2-0.5-0.4-0.6
			c-0.2-0.1-0.6-0.1-1.2-0.1v-0.4h3.3l6.7,8.8v-6.7c0-0.5-0.1-0.8-0.2-1s-0.3-0.4-0.6-0.5c-0.3-0.1-0.7-0.2-1.1-0.2v-0.4h4.1v0.4
			c-0.5,0-0.9,0.1-1.1,0.3c-0.3,0.1-0.4,0.3-0.5,0.5c-0.1,0.2-0.1,0.5-0.1,1v9.3H251.9z"/>
		<path class="st0" d="M260.4,125.4h-0.4l0.1-2.7H271l0.1,2.7h-0.4c-0.1-0.7-0.3-1.3-0.5-1.6s-0.5-0.5-0.7-0.6
			c-0.3-0.1-0.7-0.1-1.3-0.1h-1.8v7.9c0,0.9,0,1.5,0.1,1.7c0,0.3,0.2,0.5,0.3,0.6c0.2,0.1,0.5,0.2,1,0.2h0.5v0.4h-5.6v-0.4h0.6
			c0.5,0,0.8-0.1,1-0.2s0.3-0.3,0.4-0.6c0.1-0.3,0.1-0.9,0.1-1.8v-7.9h-1.7c-0.7,0-1.2,0-1.5,0.1c-0.2,0.1-0.5,0.3-0.7,0.6
			S260.5,124.7,260.4,125.4z"/>
		<path class="st0" d="M277,128.3c0-1.7,0.6-3.1,1.7-4.2c1.2-1.1,2.6-1.6,4.3-1.6c1.8,0,3.2,0.5,4.4,1.6c1.2,1,1.8,2.5,1.8,4.3
			c0,1.7-0.6,3.2-1.7,4.2s-2.6,1.6-4.4,1.6c-1.8,0-3.3-0.5-4.4-1.6S277,130,277,128.3z M278.9,128.3c0,1.8,0.4,3.2,1.1,4.1
			c0.7,0.9,1.8,1.4,3.2,1.4c1.3,0,2.3-0.5,3-1.4c0.7-0.9,1.1-2.3,1.1-4.1c0-1.7-0.4-3.1-1.1-4s-1.8-1.4-3.2-1.4
			c-1.4,0-2.4,0.5-3.1,1.4C279.3,125.2,278.9,126.5,278.9,128.3z"/>
		<path class="st0" d="M296.5,133.9v-3.6h0.4c0.5,2.4,1.6,3.5,3.3,3.5c0.8,0,1.4-0.2,1.8-0.7s0.7-1,0.7-1.5c0-0.6-0.2-1-0.6-1.4
			c-0.4-0.4-1.1-0.8-2.1-1.2c-0.9-0.4-1.6-0.7-2-1c-0.5-0.3-0.8-0.7-1.1-1.1c-0.3-0.5-0.4-1-0.4-1.5c0-0.8,0.3-1.5,0.8-2
			c0.6-0.5,1.3-0.8,2.1-0.8c0.5,0,0.9,0.1,1.3,0.2c0.4,0.2,0.9,0.5,1.3,1c0.3-0.3,0.4-0.6,0.4-1h0.4v2.9h-0.4
			c-0.2-0.9-0.6-1.5-1.1-2c-0.5-0.5-1.2-0.7-1.9-0.7c-0.7,0-1.2,0.2-1.5,0.5s-0.5,0.8-0.5,1.2c0,0.5,0.2,1,0.6,1.3
			c0.4,0.4,1.1,0.8,2.1,1.2c1,0.4,1.7,0.8,2.1,1c0.4,0.3,0.8,0.6,1.1,1.1s0.4,1,0.4,1.6c0,1-0.3,1.7-1,2.3c-0.6,0.6-1.5,0.9-2.6,0.9
			c-1.2,0-2.3-0.5-3.1-1.4c-0.2,0.3-0.3,0.6-0.4,1.1H296.5z"/>
	</g>
	<g>
		<g>
			<g class="st1">
				<path class="st0" d="M40,79.4l-0.3,10.7H8.8v-1.2h1.1c1.6,0,2.6-0.2,3.2-0.6c0.6-0.4,1-1,1.2-1.8c0.2-0.8,0.3-2.8,0.3-5.8V62.8
					c0-2.9-0.1-4.8-0.3-5.6c-0.2-0.8-0.5-1.4-1.1-1.7c-0.5-0.3-1.7-0.5-3.6-0.5H8.8v-1.2h17.5v1.2h-1.6c-1.8,0-3,0.1-3.5,0.4
					c-0.6,0.3-0.9,0.8-1.1,1.7c-0.2,0.8-0.3,2.7-0.3,5.7v19.1c0,2.6,0.1,4.3,0.2,4.9c0.1,0.7,0.5,1.2,1.2,1.5c0.6,0.4,2,0.6,4.1,0.6
					H28c2.2,0,3.9-0.2,5-0.6c1.1-0.4,2.1-1.3,3.1-2.6c1-1.3,1.9-3.4,2.7-6.3H40z"/>
				<path class="st0" d="M66.9,76.7H53.1L52.2,79c-1.4,3.3-2.1,5.5-2.1,6.6c0,1.1,0.4,1.9,1.1,2.5c0.7,0.6,1.7,0.8,2.9,0.8v1.2H43.2
					v-1.2c1.6-0.3,2.8-0.8,3.6-1.7c0.8-0.9,1.7-2.8,2.8-5.6c0.1-0.3,0.5-1.3,1.3-3.1l10.6-25.3h1l12.2,28.9l1.7,3.8
					c0.4,0.9,0.9,1.5,1.5,2c0.6,0.5,1.6,0.8,2.9,0.9v1.2H66.5v-1.2c1.8,0,2.9-0.1,3.6-0.4c0.6-0.3,0.9-0.8,0.9-1.5
					c0-0.4-0.4-1.6-1.2-3.5L66.9,76.7z M66.5,75.5L60,59.9l-6.4,15.5H66.5z"/>
			</g>
			<g class="st1">
				<path class="st0" d="M182.3,79.4L182,90.1H151v-1.2h1.1c1.6,0,2.6-0.2,3.2-0.6c0.6-0.4,1-1,1.2-1.8c0.2-0.8,0.3-2.8,0.3-5.8
					V62.8c0-2.9-0.1-4.8-0.3-5.6c-0.2-0.8-0.5-1.4-1.1-1.7c-0.5-0.3-1.7-0.5-3.6-0.5H151v-1.2h17.5v1.2h-1.6c-1.8,0-3,0.1-3.5,0.4
					c-0.6,0.3-0.9,0.8-1.1,1.7c-0.2,0.8-0.3,2.7-0.3,5.7v19.1c0,2.6,0.1,4.3,0.2,4.9s0.5,1.2,1.2,1.5c0.6,0.4,2,0.6,4.1,0.6h2.8
					c2.2,0,3.9-0.2,5-0.6s2.1-1.3,3.1-2.6c1-1.3,1.9-3.4,2.7-6.3H182.3z"/>
				<path class="st0" d="M186.8,54l6-0.3c5-0.3,8.4-0.4,10.1-0.4c5.4,0,9.6,0.8,12.6,2.5c3,1.6,5.3,3.9,6.8,6.7
					c1.5,2.8,2.2,6.1,2.2,9.8c0,2.7-0.4,5.1-1.2,7.3c-0.8,2.2-1.9,4-3.3,5.5s-3,2.6-4.9,3.3c-1.9,0.8-3.6,1.2-5.3,1.4
					c-1.7,0.2-4,0.3-7,0.3h-16.1v-1.2h1.5c1.6,0,2.6-0.2,3.2-0.6c0.6-0.4,1-1,1.2-1.8c0.2-0.8,0.3-2.8,0.3-5.8V63.1
					c0-2.9-0.1-4.8-0.3-5.6c-0.2-0.9-0.5-1.4-1.1-1.7c-0.5-0.3-1.7-0.5-3.6-0.5h-1.1V54z M198,54.7v24.3c0,3.6,0.1,5.9,0.2,7
					c0.1,1,0.5,1.8,1.2,2.2c0.7,0.4,2.1,0.6,4.3,0.6c3.2,0,5.8-0.4,7.8-1.3s3.7-2.6,5.1-5.1c1.4-2.6,2.1-5.8,2.1-9.8
					c0-3.1-0.4-5.8-1.2-8.2c-0.8-2.4-1.9-4.4-3.4-5.9c-1.5-1.5-3.1-2.5-4.9-3.1c-1.8-0.5-4.1-0.8-7-0.8
					C200.8,54.6,199.4,54.6,198,54.7z"/>
				<path class="st0" d="M261.4,78.8h1.3l-0.8,11.3h-30.2v-1.2h0.8c1.8,0,3-0.2,3.5-0.7c0.5-0.5,0.9-1.1,1-1.8
					c0.1-0.7,0.2-2.6,0.2-5.7V62.8c0-2.8-0.1-4.6-0.2-5.5c-0.2-0.9-0.5-1.5-1-1.8c-0.5-0.3-1.7-0.5-3.5-0.5v-1.2h26l0.9,9.1h-1.3
					c-0.6-2.5-1.3-4.3-2.1-5.4c-0.8-1.1-1.8-1.7-3-2c-1.1-0.3-3-0.4-5.5-0.4h-5v15.3h3.9c1.8,0,3-0.2,3.7-0.5
					c0.7-0.3,1.2-0.8,1.4-1.4c0.2-0.6,0.3-1.8,0.3-3.6h1.3v12.5h-1.3c0-2-0.2-3.4-0.5-4.1s-0.8-1.1-1.5-1.3
					c-0.7-0.2-1.8-0.3-3.3-0.3h-4v8.6c0,4.3,0.3,6.9,0.8,7.6c0.6,0.8,2.1,1.1,4.5,1.1h2.7c1.9,0,3.5-0.2,4.7-0.7
					c1.2-0.5,2.4-1.5,3.5-3C259.9,83.6,260.8,81.5,261.4,78.8z"/>
				<path class="st0" d="M290.9,76.7h-13.8l-0.9,2.3c-1.4,3.3-2.1,5.5-2.1,6.6c0,1.1,0.4,1.9,1.1,2.5c0.7,0.6,1.7,0.8,2.9,0.8v1.2
					h-10.8v-1.2c1.6-0.3,2.8-0.8,3.6-1.7c0.8-0.9,1.7-2.8,2.8-5.6c0.1-0.3,0.5-1.3,1.3-3.1l10.6-25.3h1l12.2,28.9l1.7,3.8
					c0.4,0.9,0.9,1.5,1.5,2c0.6,0.5,1.6,0.8,2.9,0.9v1.2h-14.3v-1.2c1.8,0,2.9-0.1,3.6-0.4c0.6-0.3,0.9-0.8,0.9-1.5
					c0-0.4-0.4-1.6-1.2-3.5L290.9,76.7z M290.4,75.5L284,59.9l-6.4,15.5H290.4z"/>
			</g>
			<g class="st1">
				<path class="st0" d="M129.3,69.9h-21.4l-1.5,3.6c-2.2,5.2-3.2,8.5-3.2,10.1c0,1.7,0.6,3,1.7,3.8c1.1,0.9,2.6,1.3,4.4,1.3v1.9
					H92.6v-1.9c2.5-0.4,4.3-1.3,5.6-2.6c1.2-1.4,2.7-4.3,4.4-8.7c0.1-0.4,0.8-2,2-4.8l16.4-39.1h1.6l18.8,44.7l2.6,5.9
					c0.6,1.3,1.4,2.4,2.3,3.1c1,0.8,2.5,1.2,4.4,1.4v1.9h-22.1v-1.9c2.7,0,4.5-0.2,5.5-0.6c1-0.4,1.4-1.2,1.4-2.4
					c0-0.6-0.6-2.4-1.9-5.4L129.3,69.9z M128.6,68l-10-24l-9.9,24H128.6z"/>
			</g>
		</g>
		<g>
			<path id="Path_1_1_" class="st2" d="M125,33.9l1.6-1.6l20.4,14l-8.8,8.8L125,33.9z"/>
			<path id="Path_2_1_" class="st2" d="M118.9,33.9l-1.6-1.6l-20.4,14l8.8,8.8L118.9,33.9z"/>
			<path id="Path_3_1_" class="st2" d="M125,25.4l1.6,1.6L147,13l-8.8-8.8L125,25.4z"/>
			<path id="Path_4_1_" class="st2" d="M118.9,25.4l-1.6,1.6L96.9,13l8.8-8.8L118.9,25.4z"/>
			<path id="Path_5_1_" class="st2" d="M126.9,30.9v-2.3l24.3-4.5v12.5L126.9,30.9z"/>
			<path id="Path_6_1_" class="st2" d="M116.4,30.9v-2.3l-24.3-4.5v12.5L116.4,30.9z"/>
			<path id="Path_7_1_" class="st2" d="M120.7,24.8h2.3l4.5-24.3l-12.5,0L120.7,24.8z"/>
			<path id="Path_8_1_" class="st0" d="M124.6,29.9c0,1.6-1.3,2.9-2.9,2.9c-1.6,0-2.9-1.3-2.9-2.9c0-1.6,1.3-2.9,2.9-2.9
				C123.3,27,124.6,28.3,124.6,29.9C124.6,29.9,124.6,29.9,124.6,29.9z"/>
		</g>
	</g>
</g>
</svg>
