<svg xmlns="http://www.w3.org/2000/svg" width="198.145" height="59.553" viewBox="0 0 198.145 59.553">
  <g id="Group_2600" data-name="Group 2600" transform="translate(-3513.415 -2506)">
    <text id="Powered_by" data-name="Powered by" transform="translate(3518 2516)" fill="#4a4f54" font-size="13" font-family="NewRailAlphabet-Bold, New Rail Alphabet" font-weight="700"><tspan x="0" y="0">Powered by</tspan></text>
    <g id="concept-haus-white" transform="translate(3482.235 2504.586)">
      <path id="Path_4166" data-name="Path 4166" d="M50.008,60.384H45.445a3.849,3.849,0,0,0-1.164-2.5A4.277,4.277,0,0,0,41.1,56.794a4.542,4.542,0,0,0-3.95,1.935,9.87,9.87,0,0,0-1.369,5.713,9.033,9.033,0,0,0,1.432,5.477,4.653,4.653,0,0,0,3.95,1.92,4.132,4.132,0,0,0,3.352-1.259,3.9,3.9,0,0,0,1.054-2.486H50.1a8.2,8.2,0,0,1-.646,2.679A8.93,8.93,0,0,1,47.9,73.2a7.013,7.013,0,0,1-2.709,1.8,10.5,10.5,0,0,1-3.9.676,10.773,10.773,0,0,1-4.168-.756,8.18,8.18,0,0,1-2.911-1.92,10.064,10.064,0,0,1-1.786-2.721,13.038,13.038,0,0,1-.976-2.977,15.849,15.849,0,0,1-.268-2.911,14.709,14.709,0,0,1,.551-4.043,12.821,12.821,0,0,1,1.685-3.635,8.038,8.038,0,0,1,3.185-2.73,10.493,10.493,0,0,1,4.763-1.024,10.419,10.419,0,0,1,4.108.756,6.8,6.8,0,0,1,2.712,1.935,8.514,8.514,0,0,1,1.384,2.381,6.847,6.847,0,0,1,.441,2.358Z" transform="translate(0 -31.977)" fill="#4a4f54"/>
      <path id="Path_4167" data-name="Path 4167" d="M115.4,84.928a9.061,9.061,0,0,1-12.021,0q-2.265-2.28-2.265-6.549t2.265-6.549a9.061,9.061,0,0,1,12.021,0,8.9,8.9,0,0,1,2.265,6.549A8.9,8.9,0,0,1,115.4,84.928Zm-3.15-10.574a3.792,3.792,0,0,0-5.727,0,6.267,6.267,0,0,0-1.069,4.013,6.267,6.267,0,0,0,1.069,4.013,3.793,3.793,0,0,0,5.727,0,6.267,6.267,0,0,0,1.069-4.013A6.267,6.267,0,0,0,112.246,74.355Z" transform="translate(-49.113 -43.635)" fill="#4a4f54"/>
      <path id="Path_4168" data-name="Path 4168" d="M178.26,86.925h-4.248v-10.7a3.227,3.227,0,0,0-.786-2.328,2.911,2.911,0,0,0-2.2-.819,3.572,3.572,0,0,0-2.679,1.054,4.222,4.222,0,0,0-1.021,3.069v9.725H163.06V69.68h4.185v1.825a6.02,6.02,0,0,1,4.909-2.045,6.314,6.314,0,0,1,4.5,1.509,5.444,5.444,0,0,1,1.6,4.168Z" transform="translate(-92.622 -43.572)" fill="#4a4f54"/>
      <path id="Path_4169" data-name="Path 4169" d="M232.06,80.73h4.352a7.115,7.115,0,0,1-2.245,4.7,7.625,7.625,0,0,1-5.412,1.762,8.136,8.136,0,0,1-6-2.265,8.693,8.693,0,0,1-2.28-6.451q0-4.373,2.265-6.671a9,9,0,0,1,11.273-.6,7,7,0,0,1,2.381,4.879h-4.34a3.489,3.489,0,0,0-1.024-2.233,3.185,3.185,0,0,0-2.28-.819,3.471,3.471,0,0,0-2.849,1.307,6.331,6.331,0,0,0-1.054,4.013,6.468,6.468,0,0,0,1.024,4.013,3.346,3.346,0,0,0,2.8,1.277A3.48,3.48,0,0,0,231,82.876,3.164,3.164,0,0,0,232.06,80.73Z" transform="translate(-132.949 -43.607)" fill="#4a4f54"/>
      <path id="Path_4170" data-name="Path 4170" d="M292.044,81.158l4.31.1a6.43,6.43,0,0,1-2.381,4.281,8.223,8.223,0,0,1-5.3,1.6,8.318,8.318,0,0,1-6.058-2.251q-2.313-2.25-2.313-6.5a8.915,8.915,0,0,1,2.346-6.594,8.16,8.16,0,0,1,6.028-2.346,7.22,7.22,0,0,1,5.852,2.471,9.706,9.706,0,0,1,2.084,6.436v.911H284.7a5.212,5.212,0,0,0,.893,3.051,3.393,3.393,0,0,0,3.007,1.292,3.846,3.846,0,0,0,2.25-.646A2.852,2.852,0,0,0,292.044,81.158Zm-7.174-4.942h7.249a3.4,3.4,0,0,0-1.069-2.486,3.611,3.611,0,0,0-2.381-.786,3.852,3.852,0,0,0-2.581.893,3.477,3.477,0,0,0-1.218,2.381Z" transform="translate(-174.961 -43.565)" fill="#4a4f54"/>
      <path id="Path_4171" data-name="Path 4171" d="M345.688,92.219H341.44V69.687h4.248v1.858a5.3,5.3,0,0,1,2.03-1.509,6.475,6.475,0,0,1,2.658-.566,7,7,0,0,1,5.6,2.3,9.732,9.732,0,0,1,1.983,6.549,9.427,9.427,0,0,1-2.084,6.513,7.124,7.124,0,0,1-5.585,2.328,6.906,6.906,0,0,1-2.679-.518,4.337,4.337,0,0,1-1.905-1.432Zm3.956-19.227a3.868,3.868,0,0,0-2.977,1.134q-1.057,1.134-1.072,4.185t1.072,4.185a3.877,3.877,0,0,0,2.977,1.122,3.572,3.572,0,0,0,2.879-1.307,6.215,6.215,0,0,0,1.087-4.013,6.153,6.153,0,0,0-1.078-4A3.572,3.572,0,0,0,349.644,72.992Z" transform="translate(-217.901 -43.579)" fill="#4a4f54"/>
      <path id="Path_4172" data-name="Path 4172" d="M410.35,72.509V76.1a3.108,3.108,0,0,0-.426.048l-.488.077a17.539,17.539,0,0,1-2.265.1,5.277,5.277,0,0,1-3.525-.929,3.985,3.985,0,0,1-1.039-3.1V62.465H400V58.914h2.614V54.13h4.233v4.784h3.87v3.554h-3.87v8.591a1.633,1.633,0,0,0,.33,1.226,2.392,2.392,0,0,0,1.4.3q.851,0,1.191-.033A3.319,3.319,0,0,0,410.35,72.509Z" transform="translate(-259.028 -32.805)" fill="#4a4f54"/>
      <path id="Path_4173" data-name="Path 4173" d="M460.361,76.159h-4.313V67.032h-9.309v9.127H442.39V54.13h4.349V63.1h9.315V54.13h4.313Z" transform="translate(-288.799 -32.805)" fill="#4a4f54"/>
      <path id="Path_4174" data-name="Path 4174" d="M514.343,76.681l5.954-.911v-.6a2.084,2.084,0,0,0-.661-1.667,3.9,3.9,0,0,0-2.456-.566q-3.275,0-3.275,2.361h-4.093q0-5.823,7.49-5.823,7.234-.006,7.234,5.534v9.505a12.468,12.468,0,0,0,.1,1.7l.125.723h-4.337v-1.73a7.231,7.231,0,0,1-5.358,1.95,6.353,6.353,0,0,1-4.3-1.447,4.964,4.964,0,0,1-1.685-3.965Q509.089,77.562,514.343,76.681Zm5.954,3.242v-.911l-1.667.253-1.337.22-1.337.22a4,4,0,0,0-1.825.661,1.733,1.733,0,0,0-.661,1.417,1.943,1.943,0,0,0,.08.551,3.313,3.313,0,0,0,.3.661,1.524,1.524,0,0,0,.786.628,3.6,3.6,0,0,0,1.384.235,4.434,4.434,0,0,0,3.275-1.164,3.771,3.771,0,0,0,1-2.771Z" transform="translate(-335.637 -43.586)" fill="#4a4f54"/>
      <path id="Path_4175" data-name="Path 4175" d="M583.455,87.445h-4.168V85.808a6.679,6.679,0,0,1-4.942,1.858,5.543,5.543,0,0,1-4.31-1.685,5.983,5.983,0,0,1-1.542-4.2V70.2h4.248V80.964q0,3.242,2.959,3.242a3.188,3.188,0,0,0,2.611-1.069,4.215,4.215,0,0,0,.893-2.768V70.2h4.248Z" transform="translate(-377.362 -44.091)" fill="#4a4f54"/>
      <path id="Path_4176" data-name="Path 4176" d="M639.749,74.715h-4.185q0-2.012-3.021-2.015a4.6,4.6,0,0,0-1.95.393,1.366,1.366,0,0,0-.848,1.337,1.4,1.4,0,0,0,1.191,1.384q.378.125,2.977.518a13.021,13.021,0,0,1,3.87,1.054,4.269,4.269,0,0,1,2.423,4.028q0,5.695-7.71,5.695a11.943,11.943,0,0,1-3.215-.387,6.549,6.549,0,0,1-2.155-.976,4.444,4.444,0,0,1-1.226-1.4,5.4,5.4,0,0,1-.6-1.488,6.965,6.965,0,0,1-.143-1.432h4.185q0,2.328,3.4,2.328,3.179,0,3.179-1.92a1.286,1.286,0,0,0-.253-.8,1.757,1.757,0,0,0-.866-.536,7.358,7.358,0,0,0-1.087-.3q-.473-.077-1.417-.2a17.708,17.708,0,0,1-3.021-.566q-3.778-1.1-3.778-4.721a4.465,4.465,0,0,1,2.045-3.888,8.85,8.85,0,0,1,5.129-1.4,10.621,10.621,0,0,1,3.212.441,6.172,6.172,0,0,1,2.084,1.039,4.629,4.629,0,0,1,1.131,1.417,5.518,5.518,0,0,1,.536,1.354,5.115,5.115,0,0,1,.11,1.048Z" transform="translate(-417.162 -43.54)" fill="#4a4f54"/>
      <path id="Path_4177" data-name="Path 4177" d="M449.1,7.42h4.59l6.7,11.738h-4.266l-4.736-8.1-4.6,8.1H442.47Zm-2.3,11.738H442.47" transform="translate(-288.856)" fill="#e43d30"/>
      <path id="Path_4178" data-name="Path 4178" d="M685.806,117.662H681.15V113h4.659Z" transform="translate(-456.484 -74.15)" fill="#4a4f54"/>
      <path id="Path_4179" data-name="Path 4179" d="M141.323,159.53h2.283V167.8H141.32V167h1.36v-6.677h-1.36Z" transform="translate(-77.353 -106.829)" fill="#4a4f54"/>
      <path id="Path_4180" data-name="Path 4180" d="M177.253,162.55h-1.084a1.34,1.34,0,0,0-1.488-1.221,1.628,1.628,0,0,0-.842.211,1.462,1.462,0,0,0-.557.575,3,3,0,0,0-.3.777,4.05,4.05,0,0,0-.092.893,3.1,3.1,0,0,0,.452,1.73,1.527,1.527,0,0,0,1.369.694,1.4,1.4,0,0,0,1.012-.351,1.423,1.423,0,0,0,.432-.893h1.1a2.126,2.126,0,0,1-.068.435,2.6,2.6,0,0,1-.229.551,2.135,2.135,0,0,1-.432.56,2.194,2.194,0,0,1-.726.417,3,3,0,0,1-1.06.176,3.107,3.107,0,0,1-1.209-.223,2.286,2.286,0,0,1-.842-.569,3.036,3.036,0,0,1-.494-.807,3.694,3.694,0,0,1-.274-.893,5.261,5.261,0,0,1-.068-.857,5.09,5.09,0,0,1,.083-.929,3.637,3.637,0,0,1,.3-.893,2.923,2.923,0,0,1,.527-.777,2.3,2.3,0,0,1,.828-.533,3.132,3.132,0,0,1,1.161-.2,2.891,2.891,0,0,1,1.069.185,2.215,2.215,0,0,1,.726.435,2.259,2.259,0,0,1,.432.575,2.429,2.429,0,0,1,.223.536A3.031,3.031,0,0,1,177.253,162.55Z" transform="translate(-98.795 -107.453)" fill="#4a4f54"/>
      <path id="Path_4181" data-name="Path 4181" d="M200,160.762h2.777a2.143,2.143,0,0,1,1.5.5,1.658,1.658,0,0,1-.56,2.8,1.191,1.191,0,0,1,.691.42,1.354,1.354,0,0,1,.283.819,6.333,6.333,0,0,0,.214,1.935h-1.084a7.8,7.8,0,0,1-.119-1.694,1.018,1.018,0,0,0-.253-.765,1.107,1.107,0,0,0-.792-.244h-1.637v2.7H200Zm1.018,2.935h1.488a1.465,1.465,0,0,0,.97-.283.959.959,0,0,0,.333-.774.929.929,0,0,0-.324-.765,1.4,1.4,0,0,0-.893-.265h-1.575Z" transform="translate(-118.565 -107.692)" fill="#4a4f54"/>
      <path id="Path_4182" data-name="Path 4182" d="M231.279,167.251H226.9V160.77h4.322v.893h-3.3v1.855H231.1v.893h-3.179v1.917h3.361Z" transform="translate(-137.457 -107.7)" fill="#4a4f54"/>
      <path id="Path_4183" data-name="Path 4183" d="M254.019,165.667h-2.471l-.461,1.584H250l2.084-6.481h1.435l2.111,6.481h-1.1Zm-.241-.893-1-3.221-.991,3.236Z" transform="translate(-153.681 -107.7)" fill="#4a4f54"/>
      <path id="Path_4184" data-name="Path 4184" d="M279.286,161.713h-1.944v5.573h-1.018v-5.573H274.38v-.893h4.906Z" transform="translate(-170.803 -107.735)" fill="#4a4f54"/>
      <path id="Path_4185" data-name="Path 4185" d="M301.388,160.77v6.481H300.37V160.77Z" transform="translate(-189.057 -107.7)" fill="#4a4f54"/>
      <path id="Path_4186" data-name="Path 4186" d="M316.149,166.456l1.637-5.683h1.036l-1.962,6.478H315.39l-1.98-6.481H314.5Z" transform="translate(-198.215 -107.7)" fill="#4a4f54"/>
      <path id="Path_4187" data-name="Path 4187" d="M345.579,167.251H341.2V160.77h4.322v.893h-3.3v1.855h3.164v.893h-3.164v1.917h3.361Z" transform="translate(-217.732 -107.7)" fill="#4a4f54"/>
      <path id="Path_4188" data-name="Path 4188" d="M384.066,162.543h-1.084a1.34,1.34,0,0,0-1.488-1.22,1.628,1.628,0,0,0-.842.211,1.461,1.461,0,0,0-.557.575,3.014,3.014,0,0,0-.3.777,4.048,4.048,0,0,0-.092.893,3.1,3.1,0,0,0,.452,1.73,1.527,1.527,0,0,0,1.369.694,1.4,1.4,0,0,0,1.015-.351,1.423,1.423,0,0,0,.432-.893h1.084a2.111,2.111,0,0,1-.068.435,2.589,2.589,0,0,1-.232.551,2.135,2.135,0,0,1-.432.56,2.194,2.194,0,0,1-.726.417,3,3,0,0,1-1.06.176,3.108,3.108,0,0,1-1.209-.223,2.286,2.286,0,0,1-.842-.569,3.037,3.037,0,0,1-.515-.81,3.7,3.7,0,0,1-.274-.893,5.259,5.259,0,0,1-.068-.857,5.089,5.089,0,0,1,.083-.929,3.638,3.638,0,0,1,.3-.893,2.92,2.92,0,0,1,.527-.777,2.3,2.3,0,0,1,.828-.533,3.132,3.132,0,0,1,1.161-.2,2.891,2.891,0,0,1,1.069.185,2.215,2.215,0,0,1,.726.435,2.26,2.26,0,0,1,.432.575,2.419,2.419,0,0,1,.223.536A3.009,3.009,0,0,1,384.066,162.543Z" transform="translate(-244.02 -107.446)" fill="#4a4f54"/>
      <path id="Path_4189" data-name="Path 4189" d="M411.02,167.251H406.9V160.77h1.018v5.573h3.1Z" transform="translate(-263.874 -107.7)" fill="#4a4f54"/>
      <path id="Path_4190" data-name="Path 4190" d="M431.044,160.77v4.1a1.607,1.607,0,0,0,.408,1.191,1.756,1.756,0,0,0,2.25,0,1.6,1.6,0,0,0,.4-1.17v-4.12h.973v4.09a2.367,2.367,0,0,1-.7,1.869,2.679,2.679,0,0,1-1.837.619,2.6,2.6,0,0,1-1.825-.634,2.451,2.451,0,0,1-.694-1.9V160.77Z" transform="translate(-280.112 -107.7)" fill="#4a4f54"/>
      <path id="Path_4191" data-name="Path 4191" d="M461.477,162.342h-1.036a1.322,1.322,0,0,0-.327-.81,1.378,1.378,0,0,0-1.024-.3,1.655,1.655,0,0,0-1.009.253.851.851,0,0,0-.333.717.729.729,0,0,0,.351.658,2.429,2.429,0,0,0,.723.253q.482.107.926.193a5.247,5.247,0,0,1,.875.253,1.509,1.509,0,0,1,.694.533,1.551,1.551,0,0,1,.265.932,1.84,1.84,0,0,1-.652,1.488,2.914,2.914,0,0,1-1.911.545,2.807,2.807,0,0,1-1.721-.509,1.825,1.825,0,0,1-.7-1.527h1.054q.048,1.158,1.462,1.158a2,2,0,0,0,1-.241.834.834,0,0,0,.426-.786.741.741,0,0,0-.473-.741,7.222,7.222,0,0,0-1.161-.3,5.991,5.991,0,0,1-1.274-.357,1.527,1.527,0,0,1-.926-1.527,1.6,1.6,0,0,1,.36-1.051,1.986,1.986,0,0,1,.893-.625,3.307,3.307,0,0,1,1.119-.185,2.8,2.8,0,0,1,1.73.491,1.822,1.822,0,0,1,.673,1.48Z" transform="translate(-298.774 -107.418)" fill="#4a4f54"/>
      <path id="Path_4192" data-name="Path 4192" d="M486.412,161.713h-1.944v5.573h-1.033v-5.573H481.5v-.893h4.912Z" transform="translate(-316.267 -107.735)" fill="#4a4f54"/>
      <path id="Path_4193" data-name="Path 4193" d="M511.869,167.251H507.49V160.77h4.319v.893h-3.3v1.855h3.164v.893h-3.161v1.917h3.361Z" transform="translate(-334.52 -107.7)" fill="#4a4f54"/>
      <path id="Path_4194" data-name="Path 4194" d="M532.49,160.762h2.777a2.143,2.143,0,0,1,1.5.5,1.66,1.66,0,0,1-.56,2.8,1.191,1.191,0,0,1,.691.42,1.354,1.354,0,0,1,.283.819,6.443,6.443,0,0,0,.211,1.935h-1.084a7.8,7.8,0,0,1-.119-1.694,1.019,1.019,0,0,0-.256-.765,1.107,1.107,0,0,0-.792-.244h-1.637v2.7H532.49Zm1.018,2.935H535a1.465,1.465,0,0,0,.97-.283.958.958,0,0,0,.333-.774.929.929,0,0,0-.325-.765,1.4,1.4,0,0,0-.893-.265h-1.575Z" transform="translate(-352.078 -107.692)" fill="#4a4f54"/>
      <path id="Path_4195" data-name="Path 4195" d="M572,159.53h2.286v.795h-1.36V167h1.36v.795H572Z" transform="translate(-379.827 -106.829)" fill="#4a4f54"/>
    </g>
  </g>
</svg>
